# xmcd CD database file
#
# Track frame offsets:
#	150
#	15613
#	28510
#	44137
#	58023
#	69353
#	81799
#	96822
#	110997
#	122663
#	133527
#	145162
#	161022
#	173223
#	187104
#	200348
#	214616
#	223169
#	236925
#	251116
#	265936
#	277662
#	290720
#	306808
#	320226
#
# Disc length: 4419 seconds
#
# Revision: 0
# Processed by: cddbd v1.4PL0 Copyright (c) Steve Scherf et al.
# Submitted via: CDex 1.50Beta7
#
DISCID=8a114119
DTITLE=Various Artist - The Platinum Hall of Fame
DYEAR=2002
DGENRE=Jazz
TTITLE0=Edith Piaf - La Vie en Rose
TTITLE1=Judy Garland - Over The Rainbow
TTITLE2=Marlene Dietrich - Lili Marlene
TTITLE3=Bing Crosby - White Christmas
TTITLE4=Nat king Cole - Jingle Bell
TTITLE5=Billie Holiday - The Very Thought of You
TTITLE6=Peggy Lee - I Don't Know Enought about You
TTITLE7=Duke Ellington
TTITLE8=Frank Sinatra - The Sunshine of Your Smile
TTITLE9=Fred Astaire and George Gershwin - Fascinating Rhythm
TTITLE10=Ella Fitzgerald - A Ticket, A Tasket
TTITLE11=Mario Lanza - Be My Love
TTITLE12=Sarah Vaughan - Mean To Me
TTITLE13=Louis Armstrong - I Got Rhythm
TTITLE14=Teddy Wilson and Kay Panton - As Time Goes By
TTITLE15=Paul Whiteman and Jack Fulton - Body and Soul
TTITLE16=Fats Waller - Dinah
TTITLE17=Larry Adler - Smoke Gets In Your Eyes
TTITLE18=Tino Rossi - Amapola
TTITLE19=Xavier Cugat and Carmen castillo - I Want My Mama
TTITLE20=Al Jolson - Let Me Sing
TTITLE21=Vera Lynn - When You Wish Upon A Star
TTITLE22=Perry Como - Some Enchanted Evening
TTITLE23=Lucienne Boyer - Parlez -moi d'amour
TTITLE24=Guy Lambardo - Auld Lang Syne
EXTD=YEAR: 2002
EXTT0=
EXTT1=
EXTT2=
EXTT3=
EXTT4=
EXTT5=
EXTT6=
EXTT7=
EXTT8=
EXTT9=
EXTT10=
EXTT11=
EXTT12=
EXTT13=
EXTT14=
EXTT15=
EXTT16=
EXTT17=
EXTT18=
EXTT19=
EXTT20=
EXTT21=
EXTT22=
EXTT23=
EXTT24=
PLAYORDER=
